<svg xmlns="http://www.w3.org/2000/svg" width="14" height="14" viewBox="0 0 14 14">
    <path fill="none" fill-rule="nonzero" stroke="#5C9E68" d="M4.23 5.833H2.77a.437.437 0 0 0-.437.438v4.375c0 .241.196.437.438.437h1.458a.437.437 0 0 0 .438-.437V6.27a.437.437 0 0 0-.438-.438zm-.73 4.521a.437.437 0 1 1 0-.875.437.437 0 0 1 0 .875zm5.833-6.536c0 .773-.473 1.207-.606 1.724h1.854A1.09 1.09 0 0 1 11.667 6.6a1.32 1.32 0 0 1-.355.897l-.002.002c.18.425.15 1.021-.17 1.448.159.472 0 1.052-.298 1.363.078.32.04.594-.112.814-.372.534-1.294.542-2.074.542h-.052c-.88 0-1.6-.321-2.18-.579-.29-.13-.67-.29-.96-.295a.219.219 0 0 1-.214-.218V6.678c0-.058.023-.114.065-.155.722-.714 1.033-1.47 1.624-2.062.27-.27.368-.68.463-1.074.081-.337.25-1.054.619-1.054.437 0 1.312.146 1.312 1.485z"/>
</svg>
