<svg xmlns="http://www.w3.org/2000/svg" width="40" height="45" viewBox="0 0 40 45">
    <path fill="#5C9E68" fill-rule="evenodd" d="M32.94 29.819l-2.232-1.438c.813-.94 1.791-1.391 1.805-1.4.516-.229.785-.87.613-1.46-.131-.45-.51-.749-.93-.749-.13 0-.255.03-.379.084-.069.03-1.68.765-2.886 2.386l-6.633-4.282 6.633-4.282c1.205 1.621 2.81 2.355 2.886 2.386a.944.944 0 0 0 .379.084c.42 0 .799-.306.93-.75.172-.588-.097-1.23-.613-1.46-.007-.007-.985-.458-1.805-1.399l2.232-1.437c.496-.321.661-1.025.379-1.575-.186-.36-.53-.581-.903-.581a.998.998 0 0 0-.523.152l-2.218 1.438a7.615 7.615 0 0 1-.18-2.447c.077-.62-.282-1.193-.826-1.323a.95.95 0 0 0-.206-.022c-.49 0-.896.397-.972.948-.013.084-.248 1.988.42 3.99L21.3 20.966V13.38c1.853-.36 3.224-1.545 3.286-1.598a1.12 1.12 0 0 0 .372-.765 1.168 1.168 0 0 0-.248-.826c-.2-.244-.482-.39-.786-.39-.234 0-.468.092-.654.253-.007.007-.84.718-1.97 1.04v-2.89c0-.628-.489-1.155-1.067-1.155-.579 0-1.068.527-1.068 1.154v2.868c-1.123-.321-1.956-1.033-1.97-1.04a.998.998 0 0 0-.654-.252c-.303 0-.586.145-.786.39-.186.229-.275.535-.248.833.021.298.159.566.372.757.062.053 1.433 1.238 3.286 1.598v7.585L12.55 16.66c.662-1.988.428-3.907.414-3.991-.07-.55-.476-.948-.965-.948a.95.95 0 0 0-.206.023c-.544.122-.91.71-.827 1.322 0 .016.138 1.185-.179 2.44l-2.225-1.423a.98.98 0 0 0-.523-.153c-.372 0-.717.222-.902.581-.283.55-.118 1.262.378 1.575l2.232 1.438a6.08 6.08 0 0 1-1.805 1.399c-.516.23-.785.872-.613 1.46.131.452.51.75.93.75.131 0 .255-.03.38-.084.068-.031 1.68-.765 2.885-2.386l6.633 4.282-6.633 4.282c-1.205-1.621-2.81-2.355-2.886-2.386a.944.944 0 0 0-.379-.084c-.42 0-.799.306-.93.75-.172.588.097 1.223.613 1.46a6.08 6.08 0 0 1 1.805 1.399l-2.232 1.437c-.496.321-.66 1.025-.378 1.575.185.36.53.581.902.581.179 0 .365-.053.523-.153l2.225-1.437c.317 1.262.18 2.431.18 2.447-.083.611.282 1.2.826 1.322a.95.95 0 0 0 .206.023c.49 0 .896-.397.972-.948.013-.084.248-1.988-.42-3.99l6.612-4.283v7.585c-1.853.36-3.224 1.545-3.286 1.598a1.12 1.12 0 0 0-.372.765c-.02.306.062.596.248.826.2.244.483.39.786.39.234 0 .468-.092.654-.253a5.861 5.861 0 0 1 1.97-1.04v2.868c0 .626.489 1.154 1.068 1.154.578 0 1.067-.528 1.067-1.154V34.81c1.123.321 1.956 1.032 1.97 1.04.186.16.42.252.654.252.304 0 .586-.145.786-.39.186-.229.275-.535.248-.833a1.117 1.117 0 0 0-.372-.757c-.062-.053-1.433-1.238-3.286-1.598V24.94l6.613 4.282c-.662 1.988-.427 3.907-.414 3.991.07.55.476.948.965.948a.95.95 0 0 0 .206-.023c.544-.122.903-.703.827-1.322-.007-.039-.131-1.2.179-2.447l2.218 1.437a.98.98 0 0 0 .523.153c.372 0 .717-.221.903-.58.282-.528.117-1.24-.38-1.56z"/>
</svg>
