<svg xmlns="http://www.w3.org/2000/svg" width="20" height="19" viewBox="0 0 20 19">
    <path fill="#CCC" fill-rule="evenodd" d="M9.667 2.71L2.38 8.97v9.283c0 .413.284.747.635.747l4.447-.014c.349-.002.631-.335.631-.746v-4.468c0-.413.285-.747.635-.747h2.54c.35 0 .635.334.635.747v4.464c-.001.199.066.39.185.53s.28.22.45.22l4.444.014c.35 0 .635-.334.635-.747V8.971l-7.311-6.26a.47.47 0 0 0-.64 0zm10.18 5.144l-2.903-2.466V.43a.423.423 0 0 0-.417-.43h-1.944a.423.423 0 0 0-.417.43v2.599L11.058.392a1.628 1.628 0 0 0-2.118 0L.15 7.854a.439.439 0 0 0-.056.605l.886 1.11a.408.408 0 0 0 .587.058l8.167-6.935a.413.413 0 0 1 .531 0l8.167 6.935a.408.408 0 0 0 .587-.057l.885-1.11a.439.439 0 0 0-.059-.606z"/>
</svg>
