<svg xmlns="http://www.w3.org/2000/svg" width="21" height="27" viewBox="0 0 21 27">
    <g fill="#5C9E68" fill-rule="evenodd">
        <path d="M19.096 25.485c0 .244-.212.444-.471.444h-3.927c-.259 0-.471-.2-.471-.444v-.022c0-.244.212-.444.471-.444h3.927c.259 0 .471.2.471.444v.022z"/>
        <path stroke="#5C9E68" stroke-width=".8" d="M13.017 25.573c.006-.14.034-.386.096-.55.011-.032.04-.098-.021-.138-1.647-1.147-2.555-2.698-2.555-4.648V18.7c0-.72.6-1.485 1.71-1.485h1.325c.395 0 .346-.301.346-.301l.243-3.699c.045-.686-.28-1.694-.721-2.241l-1.998-2.473c-.442-.547-.562-1.509-.268-2.137l.973-2.074c.296-.628.769-1.465.769-1.637 0-.934-2.388-1.334-5.333-1.334-2.946 0-5.333.4-5.333 1.334 0 .172.473 1.009.768 1.637l.973 2.074c.295.628.174 1.59-.267 2.137l-1.998 2.473c-.442.547-.767 1.555-.722 2.241l.785 11.757c.044.686.679 1.246 1.409 1.246h8.77c.414 0 .845-.215.99-.391.058-.083.056-.193.059-.254"/>
        <path d="M12.63 18.772c-.455 0-.455.325-.455.325v1.276c0 1.491.835 2.797 2.089 3.529.098.057.283.161.476.161h3.715c.197 0 .33-.091.417-.14 1.273-.729 2.124-2.045 2.124-3.55v-1.321s0-.28-.294-.28H12.63z"/>
    </g>
</svg>
