<svg xmlns="http://www.w3.org/2000/svg" width="110" height="150" viewBox="0 0 110 150">
    <g fill="none" fill-rule="evenodd">
        <path fill="#0D0C1C" d="M30.28 96.179C28.718 92.391 28 87.989 28 83.147V68.838c0-10.615 11.256-17.05 16.888-25.098 3.215-4.03 2.76-6.243.26-7.633-2.363-1.31-3.308-3.012-3.316-5.21-.006-1.968 3.461-2.8 10.668-2.897 7.207.097 10.674.93 10.666 2.897-.006 2.198-.953 3.9-3.314 5.21-2.5 1.39-2.955 3.603.26 7.633C65.741 51.788 77 58.223 77 68.838v2.45c-17.163 2.339-31.886 14.06-38.181 30.697l-.006.015a43.056 43.056 0 0 1-8.533-5.821"/>
        <path fill="#5C9E68" d="M81 69.981c.95-11.296 15.73-9.63 17.089-22.981A43.043 43.043 0 0 1 101 62.616c0 3.58-.435 7.057-1.254 10.384a47.96 47.96 0 0 0-16.9-3.054c-.618 0-1.232.012-1.846.035"/>
        <path fill="#E1857C" d="M83.725 73c5.734 0 11.219 1.037 16.275 2.93a42.394 42.394 0 0 1-4.921 10.114 34.865 34.865 0 0 0-11.354-1.887c-14.317 0-26.596 8.602-31.79 20.843A43.782 43.782 0 0 1 41 101.85c6.4-16.344 22.206-28.09 40.892-28.815A48.203 48.203 0 0 1 83.725 73"/>
        <path fill="#5C9E68" d="M55 105.856C59.883 95.332 70.802 88 83.49 88c3.315 0 6.511.501 9.51 1.431C85.127 99.499 72.652 106 58.607 106c-1.213 0-2.417-.048-3.607-.144"/>
        <path fill="#E1857C" d="M15 64a32.603 32.603 0 0 1 10.149 5.78v12.81c0 2.81.247 5.647.851 8.41-6.589-7.259-10.684-16.671-11-27"/>
        <path fill="#0D0C1C" d="M82.001 57c-8.366 0-12.877-4.703-13.392-11.97l-.406-5.722c.046-1.114-1.147-2.085-1.2-3.179-.393-8.172 30.387-8.172 29.993 0-.055 1.094-1.245 2.065-1.202 3.18l-.406 5.72C94.873 52.297 90.365 57 82.001 57"/>
        <path fill="#E1857C" d="M66.999 33C66.636 23.82 71.59 18.416 81 18.999 71.68 19.504 66.261 14.56 66.999 5c.365 9.18-4.59 14.584-13.999 13.999 9.32-.503 14.736 4.44 13.999 14.001"/>
        <path fill="#5C9E68" d="M75.498 13C75.328 8.738 77.63 6.23 82 6.498c-4.327.235-6.844-2.06-6.502-6.498.17 4.262-2.13 6.77-6.498 6.498 4.327-.231 6.841 2.064 6.498 6.502"/>
        <path fill="#0D0C1C" d="M83.501 22c-.221-5.573 2.786-8.855 8.499-8.499-5.658.307-8.948-2.697-8.499-8.501.22 5.573-2.788 8.855-8.501 8.501 5.658-.306 8.948 2.695 8.501 8.499"/>
        <path fill="#72A35E" d="M43 40c-15.267 1.674-20.823 12.007-16.665 31C23.828 56.41 29.385 46.074 43 40"/>
        <path fill="#72A35E" d="M37 37c-10.09.556-14.306 9.89-12.65 28C23.296 50.48 27.51 41.146 37 37"/>
        <path fill="#72A35E" d="M23.997 23c-2.513 7.576-3.686 15.018-3.52 22.32.167 7.3 1.674 14.465 4.523 21.497l-.44.183c-2.87-7.087-4.387-14.31-4.557-21.671-.052-2.382.57-16.357 3.994-22.329"/>
        <path fill="#72A35E" d="M22 28.747c1.056-1.775 2.164-3.221 3.327-4.345C26.499 23.272 27.725 22.47 29 22c-1.132.672-2.632 2.091-3.324 2.76-1.13 1.091-2.21 2.504-3.245 4.24L22 28.747"/>
        <path fill="#72A35E" d="M21.326 18C9.937 37.092 11.826 53.424 27 67c-11.623-12.215-13.514-28.548-5.674-49"/>
        <path fill="#72A35E" d="M9.004 34C8.824 50.547 14.824 61.216 27 66c-9.339-4.872-15.339-15.54-17.996-32M28.592 9c-1.666 1.57-2.024 3.235-1.076 5 1.508-1.345 1.867-3.01 1.076-5M25.147 13c-1.458 1.826-1.526 3.492-.202 5 1.335-1.58 1.404-3.246.202-5M22.481 16c-.898 2.176-.538 3.843 1.072 5 .846-1.904.492-3.57-1.072-5M32.918 6c-2.443 1.18-3.351 2.847-2.728 5 2.19-.984 3.102-2.651 2.728-5M37 5c-2.123.634-3.118 1.967-2.989 4 1.89-.503 2.886-1.84 2.989-4M41 3c-2.01.516-3.01 1.85-3 4 1.787-.396 2.786-1.73 3-4M45 3c-2.427.184-3.761 1.184-4 3 2.15-.11 3.484-1.11 4-3M50 4.194c-2.47-.621-4.136.251-5 2.614 2.174.617 3.84-.252 5-2.614M53 6.484c-2.178-.901-3.843-.544-5 1.068 1.902.848 3.566.491 5-1.068M56 9.023c-1.889-1.376-3.556-1.364-5 .037 1.64 1.265 3.303 1.253 5-.037"/>
        <path fill="#72A35E" d="M57 14c-.45-2.603-1.782-3.939-4-4 .336 2.315 1.668 3.65 4 4M50.062 9c-.325 2.096.632 3.43 2.866 4 .354-1.85-.603-3.18-2.866-4"/>
        <path fill="#72A35E" d="M47.062 8c-.325 2.097.632 3.429 2.866 4 .354-1.848-.603-3.182-2.866-4M44.062 8c-.325 2.095.631 3.429 2.868 4 .35-1.85-.607-3.185-2.868-4M41 8c.132 2.38 1.133 3.712 3 4-.063-2.107-1.064-3.442-3-4M36 8c.447 2.085 1.448 3.082 3 2.995-.356-1.859-1.354-2.858-3-2.995M33 11.464c1.606 1.649 3.274 1.97 5 .963-1.38-1.493-3.044-1.815-5-.963M30 13.928c1.863 1.41 3.53 1.43 5 .056-1.614-1.293-3.281-1.312-5-.056M27 16.716c2.314.657 3.982.175 5-1.446-2.03-.634-3.698-.152-5 1.446M29 18.017c-.827 2.333-2.162 3.296-4 2.894.684-2.086 2.018-3.053 4-2.894M32.964 16c-2.383.878-3.329 2.21-2.839 4 2.132-.727 3.079-2.059 2.839-4"/>
        <path fill="#72A35E" d="M35 16c-2.057.426-3.056 1.428-2.998 3 1.832-.332 2.834-1.334 2.998-3M39 15c-2.058.426-3.056 1.428-2.998 3 1.833-.332 2.832-1.334 2.998-3M43 15c-2.26-.025-3.594.977-4 2.996 1.999.079 3.33-.92 4-2.996M46 16.098c-2.054-.42-3.387.51-4 2.795 1.81.443 3.142-.488 4-2.795M50 18.245c-2.35-.602-4.014-.095-5 1.522 2.062.582 3.728.075 5-1.522M53 20.852c-1.973-1.247-3.641-1.125-5 .363 1.714 1.157 3.383 1.035 5-.363M55 25.984c-1.036-2.333-2.703-3.298-5-2.895.854 2.09 2.52 3.051 5 2.895"/>
        <path fill="#72A35E" d="M50.87 27c.494-2.023-.416-3.356-2.732-4-.511 1.783.4 3.116 2.731 4"/>
        <path fill="#72A35E" d="M48.867 24c.5-2.023-.411-3.356-2.728-4-.514 1.78.397 3.114 2.728 4M45.949 24c.292-2.109-.67-3.443-2.887-4-.327 1.864.635 3.195 2.887 4M42.973 23c.207-2.153-.772-3.487-2.935-4-.248 1.898.73 3.232 2.935 4"/>
        <path fill="#72A35E" d="M40.999 24c.038-2.25-.96-3.584-2.993-4-.095 1.988.902 3.322 2.993 4M37 23c-.25-1.87-1.249-2.869-3-3 .172 1.658 1.171 2.659 3 3"/>
        <path fill="#72A35E" d="M36 23c-.726-2.22-2.06-3.207-4-2.964.589 1.983 1.922 2.973 4 2.964M33 25.833c-1.028-2.5-2.362-3.347-4-2.535.867 2.249 2.2 3.095 4 2.535"/>
        <path fill="#080811" d="M96 146.294V149h14v-3.75h-6.745c-.863 0-1.568.155-1.63.155.097-.06.64-.462 1.15-1.015l7.225-7.653V134H96.477v3.75h6.396c.572 0 1.277-.123 1.372-.123-.127.09-.64.493-1.023.92L96 146.295M89 149h4v-15h-4zM88 130c0 1.63 1.37 3 3 3 1.633 0 3-1.37 3-3s-1.367-3-3-3c-1.63 0-3 1.37-3 3M72.032 142.412c.124.82.31 1.642.682 2.66l1.8 4.928h4.132L87 127h-4.347l-5.652 15.576c-.435 1.183-.527 1.774-.683 2.66-.155-.886-.25-1.51-.654-2.626l-1.46-3.944L78.46 127H74.36l-1.708 4.797c-.34.987-.559 1.84-.651 2.563-.095-.722-.343-1.576-.651-2.563L69.641 127h-4.1l4.252 11.666-1.457 3.944c-.404 1.115-.499 1.74-.654 2.627-.153-.887-.28-1.478-.683-2.66L61.347 127H57l8.354 23h4.131l1.8-4.928c.372-1.018.56-1.84.683-2.66h.064M52.185 137.647c1.996 0 3.346 1.338 3.623 3.5h-7.522c.43-2.314 2.025-3.5 3.9-3.5zM52.4 150c3.317 0 4.975-1.216 6.419-3.102l-2.182-1.645c-.797 1.157-2.147 2.1-4.115 2.1-2.116 0-4.021-1.276-4.329-4.078H59v-.79c0-4.079-2.087-7.485-6.784-7.485-4.39 0-7.216 3.378-7.216 7.484 0 4.29 3.01 7.516 7.399 7.516zM45 149l-6.29-9.493 4.604-5.632h-3.49l-4.633 5.76V125H32v24h3.19v-5.213l1.595-1.947 4.784 7.16H45M19.787 147.265c-1.637 0-2.421-.87-2.421-1.932 0-1.449 1.508-2.479 3.835-2.479 1.196 0 2.485.224 3.208.385-.347 1.998-1.919 4.026-4.622 4.026zM29 149.677v-3.09h-.44c-.566 0-.913-.353-.913-.902v-5.57c0-3.636-2.453-6.115-6.446-6.115-4.118 0-5.848 2.992-5.848 2.992l2.357 1.837a4.095 4.095 0 0 1 3.366-1.804c2.044 0 3.365 1.29 3.365 3.186v.774c-.787-.162-2.17-.484-3.774-.484-4.497 0-6.667 2.287-6.667 5.023 0 2.287 1.697 4.476 5.063 4.476 2.955 0 4.78-1.514 5.723-2.992.44 1.577 1.414 2.67 3.301 2.67H29zM6.561 150c3.649 0 6.439-2.78 6.439-6.516 0-6.104-8.307-8.116-8.307-11.278 0-1.215.827-2.142 1.962-2.142.919 0 1.624.673 2.144 1.502l2.36-2.012c-.98-1.63-2.635-2.554-4.598-2.554-2.696 0-5.12 2.107-5.12 5.174 0 5.591 8.28 7.348 8.28 11.343 0 1.946-1.135 3.384-3.129 3.384-1.655 0-3.097-1.118-3.802-3.1L0 145.463C1.103 148.53 3.802 150 6.561 150"/>
    </g>
</svg>
