<svg xmlns="http://www.w3.org/2000/svg" width="24" height="24" viewBox="0 0 24 24">
    <g fill="none" fill-rule="nonzero" transform="translate(6 5)">
        <path fill="#767676" d="M5.25 0c2.9 0 5.25 2.35 5.25 5.25 0 2.117-.737 2.708-4.71 8.468a.657.657 0 0 1-1.08 0C.737 7.958 0 7.367 0 5.25 0 2.35 2.35 0 5.25 0zm.044.875C2.854.875.875 2.842.875 5.268c0 1.77.62 2.265 3.965 7.084.219.315.688.315.908 0 3.344-4.819 3.965-5.313 3.965-7.084 0-2.426-1.979-4.393-4.42-4.393z"/>
        <circle cx="5.25" cy="5.25" r="2.625" stroke="#767676" stroke-width=".938"/>
    </g>
</svg>
