<svg xmlns="http://www.w3.org/2000/svg" width="40" height="45" viewBox="0 0 40 45">
    <path fill="#5C9E68" fill-rule="evenodd" d="M13.005 20.477l-5.938 9.734c-.173.312.006.718.334.758l11.715 1.378-6.111-11.87zm-5.588 6.267l4.235-7.64-4.311-2.87c-.15-.1-.341.02-.341.214v10.166c0 .251.298.345.417.13zm.61 6.754l10.934 5.473c.299.153.639-.089.639-.453v-4.1L8.15 33.025c-.25-.03-.35.35-.123.473zm4.568-16.095l4.496-8.925c.244-.441-.202-.953-.606-.696l-8.483 6.157a.265.265 0 0 0 .007.423l4.586 3.04zm7.905.635h6.143L21.266 7.525c-.176-.317-.47-.476-.766-.476-.296 0-.59.159-.767.476l-5.376 10.513H20.5zm13.159-1.804l-4.311 2.871 4.235 7.64c.118.214.417.12.417-.131V16.448c0-.194-.191-.314-.341-.214zm-5.254 1.169l4.585-3.041c.143-.095.147-.322.008-.424l-8.483-6.156c-.405-.257-.85.255-.606.696l4.496 8.925zm4.444 15.622L21.4 34.417v4.1c0 .365.341.607.64.454l10.934-5.474c.227-.123.127-.503-.124-.472zm-4.854-12.548l-6.11 11.87 11.714-1.378c.328-.04.507-.446.334-.758l-5.938-9.734zm-7.495-.44h-5.65L20.5 31.01l5.649-10.974h-5.65z"/>
</svg>
