<svg xmlns="http://www.w3.org/2000/svg" width="18" height="23" viewBox="0 0 18 23">
    <path fill="#CCC" fill-rule="evenodd" d="M5.823 0c2.606 0 4.718.354 4.718 1.18 0 .152-.419.892-.68 1.448l-.86 1.835c-.261.556-.155 1.406.236 1.89l1.767 2.188c.391.484.678 1.376.639 1.983l-.215 3.271s.043.266-.307.266H9.95c-.982 0-1.513.678-1.513 1.315v1.36c0 1.724.804 3.096 2.26 4.111.055.035.03.093.019.121-.055.146-.08.364-.085.487-.002.055 0 .151-.052.225-.128.156-.509.346-.876.346H1.944c-.645 0-1.207-.496-1.246-1.103l-.694-10.4c-.04-.606.247-1.498.638-1.982l1.767-2.188c.391-.484.498-1.334.237-1.89l-.861-1.835c-.261-.556-.68-1.296-.68-1.448C1.105.354 3.218 0 5.823 0zm9.768 20.966c.23 0 .417.176.417.392v.02c0 .215-.188.392-.417.392h-3.474c-.228 0-.416-.177-.416-.393v-.02c0-.215.188-.391.416-.391h3.474zm1.838-5.527c.26 0 .26.247.26.247v1.17c0 1.33-.753 2.495-1.88 3.139-.076.044-.194.125-.368.125h-3.286c-.17 0-.335-.092-.422-.143-1.109-.647-1.847-1.803-1.847-3.121v-1.137c.004-.047.04-.28.402-.28z"/>
</svg>
