<svg xmlns="http://www.w3.org/2000/svg" width="40" height="52" viewBox="0 0 40 52">
    <g fill="none" fill-rule="evenodd">
        <path fill="#434B56" fill-rule="nonzero" stroke="#5C9E68" stroke-width="3" d="M15 32.913c-2.756 0-5-2.86-5-6.375 0-2.032.762-3.896 2-5.084V6.138c0-2.111 1.344-3.825 3-3.825s3 1.714 3 3.825v15.316c1.238 1.18 2 3.052 2 5.084 0 3.515-2.244 6.375-5 6.375z"/>
        <path fill="#FFF" fill-rule="nonzero" d="M15 32.913c-2.756 0-5-2.86-5-6.375 0-2.032.762-3.896 2-5.084V6.138c0-2.111 1.344-3.825 3-3.825s3 1.714 3 3.825v15.316c1.238 1.18 2 3.052 2 5.084 0 3.515-2.244 6.375-5 6.375z"/>
        <path fill="#5C9E68" fill-rule="nonzero" d="M16 22.945V6.138c0-.7-.45-1.275-1-1.275s-1 .574-1 1.275v16.807c-1.163.525-2 1.928-2 3.593 0 2.112 1.344 3.825 3 3.825s3-1.713 3-3.825c0-1.665-.838-3.068-2-3.593z"/>
        <path stroke="#5C9E68" stroke-linecap="square" stroke-width="2" d="M24.5 1.675h5M24.5 7.413h5M24.5 13.788h5"/>
    </g>
</svg>
