<svg xmlns="http://www.w3.org/2000/svg" width="24" height="24" viewBox="0 0 24 24">
    <path fill="none" fill-rule="nonzero" stroke="#5C9E68" stroke-width=".9" d="M12 3c-4.97 0-9 4.031-9 9a9 9 0 0 0 9 9 9 9 0 0 0 9-9c0-4.969-4.03-9-9-9zm0 2.99a1.829 1.829 0 1 1 0 3.658 1.829 1.829 0 0 1 0-3.658zm2.439 11.062a.523.523 0 0 1-.523.522h-3.832a.523.523 0 0 1-.523-.522v-1.046c0-.288.234-.522.523-.522h.522v-2.787h-.522a.523.523 0 0 1-.523-.523V11.13c0-.289.234-.523.523-.523h2.787c.289 0 .523.234.523.523v4.355h.522c.289 0 .523.234.523.522v1.046z"/>
</svg>
