<svg xmlns="http://www.w3.org/2000/svg" width="40" height="45" viewBox="0 0 40 45">
    <g fill="none" fill-rule="evenodd">
        <path fill="#434B56" fill-rule="nonzero" stroke="#5C9E68" stroke-width="3" d="M15 29.138c-2.756 0-5-2.468-5-5.5 0-1.753.762-3.361 2-4.386V6.038c0-1.821 1.344-3.3 3-3.3s3 1.479 3 3.3v13.214c1.238 1.018 2 2.633 2 4.386 0 3.032-2.244 5.5-5 5.5z"/>
        <path fill="#FFF" fill-rule="nonzero" d="M15 29.138c-2.756 0-5-2.468-5-5.5 0-1.753.762-3.361 2-4.386V6.038c0-1.821 1.344-3.3 3-3.3s3 1.479 3 3.3v13.214c1.238 1.018 2 2.633 2 4.386 0 3.032-2.244 5.5-5 5.5z"/>
        <path fill="#5C9E68" fill-rule="nonzero" d="M16 20.538v-2.4c0-.605-.45-1.1-1-1.1s-1 .495-1 1.1v2.4c-1.163.454-2 1.664-2 3.1 0 1.822 1.344 3.3 3 3.3s3-1.478 3-3.3c0-1.436-.838-2.646-2-3.1z"/>
        <path stroke="#5C9E68" stroke-linecap="square" stroke-width="2" d="M24.5 2.188h5M24.5 7.138h5M24.5 12.638h5"/>
    </g>
</svg>
